:FULLY-SPECIFIED
:FORCE-ALL-JOINTS-BE-3DOF
:DEGREES
510
root -4.87225 15.1306 -42.095 391.134 12.3667 382.567
lfemur -52.7505 33.9606 -31.3344
ltibia 70.0398 0 0
lfoot -27.7009 31.4967 0
ltoes 8.81765 0 0
rfemur -21.3784 -5.2338 15.4928
rtibia 78.0844 0 0
rfoot -7.62053 -22.6412 0
rtoes 17.7867 0 0
lowerback 16.2824 -1.5184 -6.76796
upperback -0.805018 -2.92353 4.25958
thorax -9.51143 -0.938909 9.26429
lowerneck 6.58134 -16.4438 -17.2267
upperneck -0.601896 -23.4826 21.7497
head 3.54632 -12.1255 8.20978
lclavicle 2.87105e-15 1.44389e-15 0
lhumerus 4.63995 -62.385 90.8098
lradius 81.3675 0 0
lwrist 28.131 0 0
lhand -5.87751 42.5294 0
lfingers 7.12502 0 0
lthumb 19.9486 71.5021 0
rclavicle 2.87105e-15 1.44389e-15 0
rhumerus 66.9716 31.2353 -21.0755
rradius 112.124 0 0
rwrist -25.8013 0 0
rhand 6.77849 -14.3408 0
rfingers 7.12502 0 0
rthumb 32.008 -40.8974 0
511
root -4.9797 15.1241 -42.1537 391.743 10.1401 383.888
lfemur -51.9059 33.7815 -30.9184
ltibia 69.7157 0 0
lfoot -27.5671 31.3765 0
ltoes 8.32142 0 0
rfemur -21.7757 -5.63385 15.4153
rtibia 78.0178 0 0
rfoot -7.63366 -22.148 0
rtoes 17.7829 0 0
lowerback 16.3121 -1.46976 -6.81007
upperback -0.781679 -2.87601 4.19873
thorax -9.51196 -0.917348 9.20934
lowerneck 6.41901 -16.3587 -17.1877
upperneck -0.385945 -23.3553 21.559
head 3.59282 -12.0553 8.14441
lclavicle 2.6324e-15 1.34113e-15 0
lhumerus 3.48943 -61.4816 90.89
lradius 81.7057 0 0
lwrist 29.0864 0 0
lhand -6.05404 42.7336 0
lfingers 7.12502 0 0
lthumb 19.7788 71.7219 0
rclavicle 2.6324e-15 1.34113e-15 0
rhumerus 65.9615 30.8341 -21.7176
rradius 111.166 0 0
rwrist -25.2359 0 0
rhand 6.15585 -14.2425 0
rfingers 7.12502 0 0
rthumb 31.4096 -40.8539 0
512
root -5.08507 15.1163 -42.2094 392.191 7.82181 385.105
lfemur -50.9614 33.5429 -30.4503
ltibia 69.3677 0 0
lfoot -27.4194 31.2424 0
ltoes 7.75764 0 0
rfemur -22.2336 -6.06186 15.3216
rtibia 77.9243 0 0
rfoot -7.63944 -21.5923 0
rtoes 17.7515 0 0
lowerback 16.3425 -1.41392 -6.8539
upperback -0.755843 -2.81991 4.13172
thorax -9.51167 -0.891892 9.14646
lowerneck 6.24348 -16.2649 -17.141
upperneck -0.156835 -23.2145 21.3481
head 3.64011 -11.9776 8.07223
lclavicle 2.44144e-15 1.22919e-15 0
lhumerus 2.19808 -60.4968 90.988
lradius 82.0862 0 0
lwrist 30.1219 0 0
lhand -6.24117 42.9524 0
lfingers 7.12502 0 0
lthumb 19.5987 71.9572 0
rclavicle 2.44144e-15 1.22919e-15 0
rhumerus 64.8499 30.3771 -22.4222
rradius 110.088 0 0
rwrist -24.6402 0 0
rhand 5.48014 -14.1689 0
rfingers 7.12502 0 0
rthumb 30.7602 -40.8411 0
513
root -5.18811 15.107 -42.262 392.47 5.41018 386.209
lfemur -49.9133 33.2422 -29.9281
ltibia 68.9951 0 0
lfoot -27.2574 31.0941 0
ltoes 7.12381 0 0
rfemur -22.7543 -6.51861 15.2112
rtibia 77.8026 0 0
rfoot -7.63752 -20.972 0
rtoes 17.691 0 0
lowerback 16.3737 -1.3506 -6.89945
upperback -0.727431 -2.75485 4.05833
thorax -9.51054 -0.862373 9.07531
lowerneck 6.05438 -16.1621 -17.0862
upperneck 0.0856588 -23.0596 21.1162
head 3.6881 -11.8922 7.99302
lclavicle 2.30085e-15 1.10787e-15 0
lhumerus 0.760749 -59.4277 91.1046
lradius 82.5104 0 0
lwrist 31.2399 0 0
lhand -6.43899 43.1863 0
lfingers 7.12502 0 0
lthumb 19.4084 72.2085 0
rclavicle 2.30085e-15 1.10787e-15 0
rhumerus 63.6336 29.8626 -23.1915
rradius 108.883 0 0
rwrist -24.0134 0 0
rhand 4.74977 -14.1213 0
rfingers 7.12502 0 0
rthumb 30.0585 -40.8606 0
514
root -5.28862 15.0963 -42.3111 392.572 2.90368 387.196
lfemur -48.758 32.8769 -29.3499
ltibia 68.5968 0 0
lfoot -27.0808 30.9309 0
ltoes 6.41745 0 0
rfemur -23.3403 -7.00491 15.0833
rtibia 77.6515 0 0
rfoot -7.62754 -20.2848 0
rtoes 17.6 0 0
lowerback 16.4057 -1.27948 -6.94671
upperback -0.696364 -2.68046 3.97835
thorax -9.50852 -0.828623 8.99557
lowerneck 5.85136 -16.0499 -17.023
upperneck 0.341758 -22.8903 20.8626
head 3.73674 -11.7987 7.90655
lclavicle 2.21331e-15 9.76954e-16 0
lhumerus -0.827741 -58.2719 91.2406
lradius 82.9798 0 0
lwrist 32.4427 0 0
lhand -6.64754 43.4358 0
lfingers 7.12502 0 0
lthumb 19.2078 72.4762 0
rclavicle 2.21331e-15 9.76954e-16 0
rhumerus 62.3091 29.2884 -24.0274
rradius 107.548 0 0
rwrist -23.3548 0 0
rhand 3.96314 -14.1011 0
rfingers 7.12502 0 0
rthumb 29.3028 -40.9141 0
515
root -5.38635 15.084 -42.3567 392.488 0.300778 388.059
lfemur -47.4918 32.4444 -28.7139
ltibia 68.1721 0 0
lfoot -26.889 30.7525 0
ltoes 5.63607 0 0
rfemur -23.9939 -7.52154 14.9372
rtibia 77.4698 0 0
rfoot -7.60914 -19.5284 0
rtoes 17.4771 0 0
lowerback 16.4383 -1.2003 -6.99568
upperback -0.662562 -2.59638 3.89156
thorax -9.50559 -0.790472 8.9069
lowerneck 5.63405 -15.9282 -16.9511
upperneck 0.611687 -22.7059 20.5866
head 3.78596 -11.6969 7.81258
lclavicle 2.1815e-15 8.36238e-16 0
lhumerus -2.57256 -57.0267 91.3968
lradius 83.4961 0 0
lwrist 33.7328 0 0
lhand -6.86691 43.7014 0
lfingers 7.12502 0 0
lthumb 18.9967 72.7609 0
rclavicle 2.1815e-15 8.36238e-16 0
rhumerus 60.8729 28.6527 -24.9319
rradius 106.077 0 0
rwrist -22.6635 0 0
rhand 3.11867 -14.1098 0
rfingers 7.12502 0 0
rthumb 28.4916 -41.0032 0
516
root -5.48108 15.0701 -42.3984 392.21 -2.40007 388.79
lfemur -46.111 31.9421 -28.0182
ltibia 67.7202 0 0
lfoot -26.6816 30.5584 0
ltoes 4.77718 0 0
rfemur -24.7175 -8.0693 14.7723
rtibia 77.2563 0 0
rfoot -7.58196 -18.7006 0
rtoes 17.3207 0 0
lowerback 16.4715 -1.11274 -7.04636
upperback -0.625948 -2.50222 3.79775
thorax -9.50168 -0.747753 8.80897
lowerneck 5.40207 -15.7965 -16.8702
upperneck 0.895667 -22.5061 20.2875
head 3.83569 -11.5865 7.71088
lclavicle 2.2081e-15 6.85513e-16 0
lhumerus -4.47887 -55.6893 91.5739
lradius 84.0607 0 0
lwrist 35.1126 0 0
lhand -7.09716 43.9836 0
lfingers 7.12502 0 0
lthumb 18.7752 73.063 0
rclavicle 2.2081e-15 6.85513e-16 0
rhumerus 59.3217 27.9533 -25.907
rradius 104.466 0 0
rwrist -21.9387 0 0
rhand 2.21476 -14.1489 0
rfingers 7.12502 0 0
rthumb 27.6234 -41.1296 0
517
root -5.57259 15.0546 -42.4361 391.729 -5.20041 389.384
lfemur -44.612 31.3676 -27.2608
ltibia 67.2402 0 0
lfoot -26.4582 30.348 0
ltoes 3.8383 0 0
rfemur -25.5134 -8.64899 14.5879
rtibia 77.0099 0 0
rfoot -7.54565 -17.799 0
rtoes 17.1295 0 0
lowerback 16.5055 -1.01652 -7.09873
upperback -0.586441 -2.39762 3.69669
thorax -9.49678 -0.700296 8.70143
lowerneck 5.15505 -15.6547 -16.7798
upperneck 1.19392 -22.2903 19.9646
head 3.88586 -11.4673 7.60122
lclavicle 2.29578e-15 5.24573e-16 0
lhumerus -6.55185 -54.2573 91.7727
lradius 84.6753 0 0
lwrist 36.5845 0 0
lhand -7.33837 44.2828 0
lfingers 7.12502 0 0
lthumb 18.5431 73.383 0
rclavicle 2.29578e-15 5.24573e-16 0
rhumerus 57.6519 27.1885 -26.9549
rradius 102.711 0 0
rwrist -21.1797 0 0
rhand 1.24983 -14.2198 0
rfingers 7.12502 0 0
rthumb 26.6967 -41.2949 0
518
root -5.66064 15.0373 -42.4696 391.039 -8.10178 389.834
lfemur -42.9913 30.7182 -26.4399
ltibia 66.7313 0 0
lfoot -26.2183 30.121 0
ltoes 2.81693 0 0
rfemur -26.3842 -9.26139 14.3833
rtibia 76.7293 0 0
rfoot -7.49983 -16.8216 0
rtoes 16.9019 0 0
lowerback 16.54 -0.911344 -7.15278
upperback -0.543962 -2.2822 3.58818
thorax -9.49083 -0.647934 8.58397
lowerneck 4.89264 -15.5023 -16.6798
upperneck 1.50668 -22.0581 19.6171
head 3.9364 -11.339 7.48336
lclavicle 2.44723e-15 3.53209e-16 0
lhumerus -8.79665 -52.728 91.994
lradius 85.3413 0 0
lwrist 38.1508 0 0
lhand -7.59059 44.5995 0
lfingers 7.12502 0 0
lthumb 18.3003 73.7214 0
rclavicle 2.44723e-15 3.53209e-16 0
rhumerus 55.8601 26.356 -28.0774
rradius 100.806 0 0
rwrist -20.3855 0 0
rhand 0.222276 -14.3238 0
rfingers 7.12502 0 0
rthumb 25.71 -41.5007 0
